# Blender 4.0.1
# www.blender.org
o Bubble
v -120.137177 -0.000004 -36.098457
v 120.137177 0.000003 -36.098457
v -120.137177 -7.042462 -35.404835
v 120.137177 -7.042459 -35.404835
v -120.137177 -13.814286 -33.350624
v 120.137177 -13.814280 -33.350624
v -120.137177 -20.055233 -30.014771
v 120.137177 -20.055227 -30.014771
v -120.137177 -25.525469 -25.525463
v 120.137177 -25.525463 -25.525463
v -120.137161 -30.014772 -20.055227
v 120.137177 -30.014765 -20.055227
v -120.137161 -33.350628 -13.814282
v 120.137177 -33.350620 -13.814282
v -120.137161 -35.404839 -7.042459
v 120.137177 -35.404831 -7.042459
v -120.137177 -36.098461 -0.000000
v 120.137177 -36.098457 -0.000000
v -120.137161 -35.404839 7.042459
v 120.137177 -35.404831 7.042459
v -120.137161 -33.350628 13.814282
v 120.137177 -33.350620 13.814282
v -120.137161 -30.014772 20.055227
v 120.137177 -30.014765 20.055227
v -120.137177 -25.525469 25.525463
v 120.137177 -25.525463 25.525463
v -120.137177 -20.055233 30.014771
v 120.137177 -20.055227 30.014771
v -120.137177 -13.814286 33.350624
v 120.137177 -13.814280 33.350624
v -120.137177 -7.042462 35.404835
v 120.137177 -7.042459 35.404835
v -120.137177 -0.000004 36.098457
v 120.137177 0.000003 36.098457
v -120.137177 7.042455 35.404835
v 120.137177 7.042462 35.404835
v -120.137177 13.814279 33.350624
v 120.137177 13.814284 33.350624
v -120.137177 20.055220 30.014771
v 120.137177 20.055229 30.014771
v -120.137177 25.525455 25.525463
v 120.137177 25.525465 25.525463
v -120.137177 30.014769 20.055227
v 120.137161 30.014774 20.055227
v -120.137177 33.350620 13.814282
v 120.137161 33.350628 13.814282
v -120.137177 35.404831 7.042459
v 120.137161 35.404839 7.042459
v -120.137177 36.098457 -0.000000
v 120.137177 36.098461 -0.000000
v -120.137177 35.404831 -7.042459
v 120.137161 35.404839 -7.042459
v -120.137177 33.350620 -13.814282
v 120.137161 33.350628 -13.814282
v -120.137177 30.014769 -20.055227
v 120.137161 30.014774 -20.055227
v -120.137177 25.525455 -25.525463
v 120.137177 25.525465 -25.525463
v -120.137177 20.055220 -30.014771
v 120.137177 20.055229 -30.014771
v -120.137177 13.814279 -33.350624
v 120.137177 13.814284 -33.350624
v -120.137177 7.042455 -35.404835
v 120.137177 7.042462 -35.404835
v 333.293915 0.000002 0.000001
v -333.293915 -0.000003 0.000000
v -85.004417 -0.000003 -40.000000
v -69.414131 -0.000002 -40.000000
v -48.679680 -0.000001 -40.000000
v -0.000000 0.000000 -40.000000
v 48.679680 0.000001 -40.000000
v 69.414131 0.000002 -40.000000
v 85.004417 0.000003 -40.000000
v 85.004417 -7.803612 -39.231411
v 69.414131 -7.803613 -39.231411
v 48.679680 -7.803613 -39.231411
v -0.000000 -7.803614 -39.231411
v -48.679680 -7.803614 -39.231411
v -69.414131 -7.803615 -39.231411
v -85.004417 -7.803615 -39.231411
v 85.004417 -15.307336 -36.955181
v 69.414131 -15.307337 -36.955181
v 48.679680 -15.307338 -36.955181
v -0.000000 -15.307339 -36.955181
v -48.679680 -15.307340 -36.955181
v -69.414131 -15.307341 -36.955181
v -85.004417 -15.307342 -36.955181
v 85.004417 -22.222809 -33.258785
v 69.414131 -22.222809 -33.258785
v 48.679680 -22.222809 -33.258785
v -0.000000 -22.222811 -33.258785
v -48.679680 -22.222813 -33.258785
v -69.414131 -22.222813 -33.258785
v -85.004417 -22.222813 -33.258785
v 85.004425 -28.284271 -28.284271
v 69.414146 -28.284271 -28.284271
v 48.679695 -28.284271 -28.284271
v 0.000004 -28.284273 -28.284271
v -48.679672 -28.284275 -28.284271
v -69.414131 -28.284275 -28.284271
v -85.004417 -28.284275 -28.284271
v 85.004425 -33.258781 -22.222809
v 69.414146 -33.258781 -22.222809
v 48.679699 -33.258781 -22.222809
v 0.000009 -33.258781 -22.222809
v -48.679661 -33.258781 -22.222809
v -69.414124 -33.258785 -22.222809
v -85.004410 -33.258789 -22.222809
v 85.004425 -36.955177 -15.307339
v 69.414146 -36.955177 -15.307339
v 48.679699 -36.955177 -15.307339
v 0.000009 -36.955177 -15.307339
v -48.679661 -36.955177 -15.307339
v -69.414124 -36.955181 -15.307339
v -85.004410 -36.955185 -15.307339
v 85.004425 -39.231407 -7.803613
v 69.414146 -39.231407 -7.803613
v 48.679699 -39.231407 -7.803613
v 0.000009 -39.231407 -7.803613
v -48.679661 -39.231407 -7.803613
v -69.414124 -39.231411 -7.803613
v -85.004410 -39.231415 -7.803613
v 85.004425 -40.000000 0.000000
v 69.414146 -40.000000 0.000000
v 48.679695 -40.000000 0.000000
v 0.000004 -40.000000 0.000000
v -48.679672 -40.000000 0.000000
v -69.414131 -40.000000 0.000000
v -85.004417 -40.000000 0.000000
v 85.004425 -39.231407 7.803613
v 69.414146 -39.231407 7.803613
v 48.679699 -39.231407 7.803613
v 0.000009 -39.231407 7.803613
v -48.679661 -39.231407 7.803613
v -69.414124 -39.231411 7.803613
v -85.004410 -39.231415 7.803613
v 85.004425 -36.955177 15.307339
v 69.414146 -36.955177 15.307339
v 48.679699 -36.955177 15.307339
v 0.000009 -36.955177 15.307339
v -48.679661 -36.955177 15.307339
v -69.414124 -36.955181 15.307339
v -85.004410 -36.955185 15.307339
v 85.004425 -33.258781 22.222809
v 69.414146 -33.258781 22.222809
v 48.679699 -33.258781 22.222809
v 0.000009 -33.258781 22.222809
v -48.679661 -33.258781 22.222809
v -69.414124 -33.258785 22.222809
v -85.004410 -33.258789 22.222809
v 85.004425 -28.284271 28.284271
v 69.414146 -28.284271 28.284271
v 48.679695 -28.284271 28.284271
v 0.000004 -28.284273 28.284271
v -48.679672 -28.284275 28.284271
v -69.414131 -28.284275 28.284271
v -85.004417 -28.284275 28.284271
v 85.004417 -22.222809 33.258785
v 69.414131 -22.222809 33.258785
v 48.679680 -22.222809 33.258785
v -0.000000 -22.222811 33.258785
v -48.679680 -22.222813 33.258785
v -69.414131 -22.222813 33.258785
v -85.004417 -22.222813 33.258785
v 85.004417 -15.307336 36.955181
v 69.414131 -15.307337 36.955181
v 48.679680 -15.307338 36.955181
v -0.000000 -15.307339 36.955181
v -48.679680 -15.307340 36.955181
v -69.414131 -15.307341 36.955181
v -85.004417 -15.307342 36.955181
v 85.004417 -7.803612 39.231411
v 69.414131 -7.803613 39.231411
v 48.679680 -7.803613 39.231411
v -0.000000 -7.803614 39.231411
v -48.679680 -7.803614 39.231411
v -69.414131 -7.803615 39.231411
v -85.004417 -7.803615 39.231411
v 85.004417 0.000003 40.000000
v 69.414131 0.000002 40.000000
v 48.679680 0.000001 40.000000
v -0.000000 0.000000 40.000000
v -48.679680 -0.000001 40.000000
v -69.414131 -0.000002 40.000000
v -85.004417 -0.000003 40.000000
v 85.004417 7.803615 39.231411
v 69.414131 7.803614 39.231411
v 48.679680 7.803613 39.231411
v -0.000000 7.803612 39.231411
v -48.679680 7.803611 39.231411
v -69.414131 7.803610 39.231411
v -85.004417 7.803609 39.231411
v 85.004417 15.307340 36.955181
v 69.414131 15.307339 36.955181
v 48.679680 15.307338 36.955181
v -0.000000 15.307337 36.955181
v -48.679680 15.307337 36.955181
v -69.414131 15.307336 36.955181
v -85.004417 15.307335 36.955181
v 85.004417 22.222809 33.258785
v 69.414131 22.222807 33.258785
v 48.679680 22.222805 33.258785
v -0.000000 22.222805 33.258785
v -48.679680 22.222805 33.258785
v -69.414131 22.222803 33.258785
v -85.004417 22.222801 33.258785
v 85.004417 28.284271 28.284271
v 69.414131 28.284269 28.284271
v 48.679676 28.284267 28.284271
v -0.000005 28.284267 28.284271
v -48.679691 28.284267 28.284271
v -69.414146 28.284266 28.284271
v -85.004425 28.284264 28.284271
v 85.004410 33.258789 22.222809
v 69.414124 33.258789 22.222809
v 48.679661 33.258789 22.222809
v -0.000010 33.258789 22.222809
v -48.679699 33.258789 22.222809
v -69.414146 33.258785 22.222809
v -85.004425 33.258781 22.222809
v 85.004410 36.955185 15.307339
v 69.414124 36.955185 15.307339
v 48.679661 36.955185 15.307339
v -0.000010 36.955185 15.307339
v -48.679699 36.955185 15.307339
v -69.414146 36.955181 15.307339
v -85.004425 36.955177 15.307339
v 85.004410 39.231415 7.803613
v 69.414124 39.231415 7.803613
v 48.679661 39.231415 7.803613
v -0.000010 39.231415 7.803613
v -48.679699 39.231415 7.803613
v -69.414146 39.231411 7.803613
v -85.004425 39.231407 7.803613
v 85.004417 40.000004 0.000000
v 69.414131 40.000004 0.000000
v 48.679676 40.000004 0.000000
v -0.000005 40.000004 0.000000
v -48.679691 40.000004 0.000000
v -69.414146 40.000004 0.000000
v -85.004425 40.000000 0.000000
v 85.004410 39.231415 -7.803613
v 69.414124 39.231415 -7.803613
v 48.679661 39.231415 -7.803613
v -0.000010 39.231415 -7.803613
v -48.679699 39.231415 -7.803613
v -69.414146 39.231411 -7.803613
v -85.004425 39.231407 -7.803613
v 85.004410 36.955185 -15.307339
v 69.414124 36.955185 -15.307339
v 48.679661 36.955185 -15.307339
v -0.000010 36.955185 -15.307339
v -48.679699 36.955185 -15.307339
v -69.414146 36.955181 -15.307339
v -85.004425 36.955177 -15.307339
v 85.004410 33.258789 -22.222809
v 69.414124 33.258789 -22.222809
v 48.679661 33.258789 -22.222809
v -0.000010 33.258789 -22.222809
v -48.679699 33.258789 -22.222809
v -69.414146 33.258785 -22.222809
v -85.004425 33.258781 -22.222809
v 85.004417 28.284271 -28.284271
v 69.414131 28.284269 -28.284271
v 48.679676 28.284267 -28.284271
v -0.000005 28.284267 -28.284271
v -48.679691 28.284267 -28.284271
v -69.414146 28.284266 -28.284271
v -85.004425 28.284264 -28.284271
v 85.004417 22.222809 -33.258785
v 69.414131 22.222807 -33.258785
v 48.679680 22.222805 -33.258785
v -0.000000 22.222805 -33.258785
v -48.679680 22.222805 -33.258785
v -69.414131 22.222803 -33.258785
v -85.004417 22.222801 -33.258785
v 85.004417 15.307340 -36.955181
v 69.414131 15.307339 -36.955181
v 48.679680 15.307338 -36.955181
v -0.000000 15.307337 -36.955181
v -48.679680 15.307337 -36.955181
v -69.414131 15.307336 -36.955181
v -85.004417 15.307335 -36.955181
v 85.004417 7.803615 -39.231411
v 69.414131 7.803614 -39.231411
v 48.679680 7.803613 -39.231411
v -0.000000 7.803612 -39.231411
v -48.679680 7.803611 -39.231411
v -69.414131 7.803610 -39.231411
v -85.004417 7.803609 -39.231411
vn -0.0551 0.1948 0.9793
vn -0.1385 -0.0000 0.9904
vn -0.0551 -0.0000 0.9985
vn -0.0551 0.3821 0.9225
vn -0.1385 0.1932 0.9713
vn -0.0551 0.5547 0.8302
vn -0.1385 0.3790 0.9150
vn -0.0551 0.7060 0.7060
vn -0.1385 0.5502 0.8235
vn -0.0551 0.8302 0.5547
vn -0.1385 0.7003 0.7003
vn -0.1385 0.9150 0.3790
vn -0.1385 0.8235 0.5502
vn -0.0551 0.9793 0.1948
vn -0.0551 0.9225 0.3821
vn -0.0551 0.9985 -0.0000
vn -0.1385 0.9713 0.1932
vn -0.0551 0.9793 -0.1948
vn -0.1385 0.9904 -0.0000
vn -0.0551 0.9225 -0.3821
vn -0.1385 0.9713 -0.1932
vn -0.0551 0.8302 -0.5547
vn -0.1385 0.9150 -0.3790
vn -0.0551 0.7060 -0.7060
vn -0.1385 0.8235 -0.5502
vn -0.1385 0.5502 -0.8235
vn -0.1385 0.7003 -0.7003
vn -0.0551 0.3821 -0.9225
vn -0.0551 0.5547 -0.8302
vn -0.1385 0.1932 -0.9713
vn -0.1385 0.3790 -0.9150
vn -0.0551 0.1948 -0.9793
vn -0.1385 -0.0000 -0.9904
vn -0.0551 -0.1948 -0.9793
vn -0.0551 -0.0000 -0.9985
vn -0.0551 -0.3821 -0.9225
vn -0.1385 -0.1932 -0.9713
vn -0.0551 -0.5547 -0.8302
vn -0.1385 -0.3790 -0.9150
vn -0.0551 -0.7060 -0.7060
vn -0.1385 -0.5502 -0.8235
vn -0.1385 -0.8235 -0.5502
vn -0.1385 -0.7003 -0.7003
vn -0.0551 -0.8302 -0.5547
vn -0.1385 -0.9150 -0.3790
vn -0.0551 -0.9793 -0.1948
vn -0.0551 -0.9225 -0.3821
vn -0.0551 -0.9985 -0.0000
vn -0.1385 -0.9713 -0.1932
vn -0.1385 -0.9713 0.1932
vn -0.1385 -0.9904 -0.0000
vn -0.0551 -0.9225 0.3821
vn -0.0551 -0.9793 0.1948
vn -0.0551 -0.8302 0.5547
vn -0.1385 -0.9150 0.3790
vn -0.0551 -0.7060 0.7060
vn -0.1385 -0.8235 0.5502
vn -0.0551 -0.5547 0.8302
vn -0.1385 -0.7003 0.7003
vn -0.0551 -0.3821 0.9225
vn -0.1385 -0.5502 0.8235
vn -0.1385 -0.1932 0.9713
vn -0.1385 -0.3790 0.9150
vn -0.0551 -0.1948 0.9793
vn -1.0000 0.0001 -0.0000
vn 0.1385 -0.0000 0.9904
vn 0.1385 -0.1932 0.9713
vn 1.0000 -0.0001 -0.0000
vn 0.1385 -0.3790 0.9150
vn 0.1385 -0.5502 0.8235
vn 0.1385 -0.7003 0.7003
vn 0.1385 -0.8235 0.5502
vn 0.1385 -0.9150 0.3790
vn 0.1385 -0.9713 0.1932
vn 0.1385 -0.9904 -0.0000
vn 0.1385 -0.9713 -0.1932
vn 0.1385 -0.9150 -0.3790
vn 0.1385 -0.8235 -0.5502
vn 0.1385 -0.7003 -0.7003
vn 0.1385 -0.5502 -0.8235
vn 0.1385 -0.3790 -0.9150
vn 0.1385 -0.1932 -0.9713
vn 0.1385 -0.0000 -0.9904
vn 0.1385 0.1932 -0.9713
vn 0.1385 0.3790 -0.9150
vn 0.1385 0.5502 -0.8235
vn 0.1385 0.7003 -0.7003
vn 0.1385 0.8235 -0.5502
vn 0.1385 0.9150 -0.3790
vn 0.1385 0.9713 -0.1932
vn 0.1385 0.9904 -0.0000
vn 0.1385 0.9713 0.1932
vn 0.1385 0.9150 0.3790
vn 0.1385 0.8235 0.5502
vn 0.1385 0.7003 0.7003
vn 0.1385 0.5502 0.8235
vn 0.1385 0.3790 0.9150
vn 0.1385 0.1932 0.9713
vn 0.0551 -0.0000 0.9985
vn 0.0551 -0.1948 0.9793
vn -0.0000 -0.0000 1.0000
vn -0.0000 -0.1951 0.9808
vn 0.0551 -0.3821 0.9225
vn -0.0000 -0.3827 0.9239
vn 0.0551 -0.5547 0.8302
vn -0.0000 -0.5556 0.8315
vn 0.0551 -0.7060 0.7060
vn -0.0000 -0.7071 0.7071
vn 0.0551 -0.8302 0.5547
vn -0.0000 -0.8315 0.5556
vn 0.0551 -0.9225 0.3821
vn -0.0000 -0.9239 0.3827
vn 0.0551 -0.9793 0.1948
vn -0.0000 -0.9808 0.1951
vn 0.0551 -0.9985 -0.0000
vn -0.0000 -1.0000 -0.0000
vn 0.0551 -0.9793 -0.1948
vn -0.0000 -0.9808 -0.1951
vn 0.0551 -0.9225 -0.3821
vn -0.0000 -0.9239 -0.3827
vn 0.0551 -0.8302 -0.5547
vn -0.0000 -0.8315 -0.5556
vn 0.0551 -0.7060 -0.7060
vn -0.0000 -0.7071 -0.7071
vn 0.0551 -0.5547 -0.8302
vn -0.0000 -0.5556 -0.8315
vn 0.0551 -0.3821 -0.9225
vn -0.0000 -0.3827 -0.9239
vn 0.0551 -0.1948 -0.9793
vn -0.0000 -0.1951 -0.9808
vn 0.0551 -0.0000 -0.9985
vn -0.0000 -0.0000 -1.0000
vn 0.0551 0.1948 -0.9793
vn -0.0000 0.1951 -0.9808
vn 0.0551 0.3821 -0.9225
vn -0.0000 0.3827 -0.9239
vn 0.0551 0.5547 -0.8302
vn -0.0000 0.5556 -0.8315
vn 0.0551 0.7060 -0.7060
vn -0.0000 0.7071 -0.7071
vn 0.0551 0.8302 -0.5547
vn -0.0000 0.8315 -0.5556
vn 0.0551 0.9225 -0.3821
vn -0.0000 0.9239 -0.3827
vn 0.0551 0.9793 -0.1948
vn -0.0000 0.9808 -0.1951
vn 0.0551 0.9985 -0.0000
vn -0.0000 1.0000 -0.0000
vn 0.0551 0.9793 0.1948
vn -0.0000 0.9808 0.1951
vn 0.0551 0.9225 0.3821
vn -0.0000 0.9239 0.3827
vn 0.0551 0.8302 0.5547
vn -0.0000 0.8315 0.5556
vn 0.0551 0.7060 0.7060
vn -0.0000 0.7071 0.7071
vn 0.0551 0.5547 0.8302
vn -0.0000 0.5556 0.8315
vn 0.0551 0.3821 0.9225
vn -0.0000 0.3827 0.9239
vn 0.0551 0.1948 0.9793
vn -0.0000 0.1951 0.9808
vt 0.230274 0.434012
vt 0.261789 0.389469
vt 0.260855 0.434313
vt 0.199618 0.433629
vt 0.231589 0.389227
vt 0.168899 0.433225
vt 0.201515 0.388850
vt 0.138053 0.432592
vt 0.171352 0.388056
vt 0.106991 0.431794
vt 0.141133 0.387355
vt 0.081071 0.385114
vt 0.111047 0.386406
vt 0.043773 0.429424
vt 0.075631 0.430764
vt 0.011176 0.427714
vt 0.051202 0.383344
vt 0.962476 0.431379
vt 0.986634 0.383304
vt 0.995283 0.430115
vt 0.930556 0.432379
vt 0.956476 0.385334
vt 0.899202 0.433061
vt 0.926267 0.386701
vt 0.868104 0.433641
vt 0.896076 0.387842
vt 0.835443 0.388924
vt 0.865864 0.388490
vt 0.806615 0.434467
vt 0.837300 0.434173
vt 0.774713 0.389990
vt 0.805006 0.389507
vt 0.776045 0.434725
vt 0.744531 0.390387
vt 0.715265 0.435103
vt 0.745600 0.434938
vt 0.685009 0.435212
vt 0.714449 0.390713
vt 0.654782 0.435255
vt 0.684469 0.390972
vt 0.624567 0.435328
vt 0.654603 0.391161
vt 0.594370 0.390797
vt 0.624632 0.390994
vt 0.594384 0.435439
vt 0.564069 0.390930
vt 0.533964 0.435349
vt 0.564178 0.435388
vt 0.503749 0.435277
vt 0.533937 0.391043
vt 0.473879 0.390853
vt 0.503954 0.391118
vt 0.443309 0.435180
vt 0.473549 0.435326
vt 0.413030 0.435125
vt 0.443771 0.390868
vt 0.382710 0.434934
vt 0.413605 0.390538
vt 0.352312 0.434810
vt 0.383407 0.390495
vt 0.321895 0.434723
vt 0.353177 0.390106
vt 0.292135 0.389611
vt 0.322672 0.389695
vt 0.291408 0.434517
vt 0.225331 0.009814
vt 0.204870 0.007978
vt 0.172536 0.006277
vt 0.148154 0.006488
vt 0.126087 0.006039
vt 0.107267 0.004927
vt 0.021375 0.380895
vt 0.093216 0.002275
vt 0.924361 0.001930
vt 0.909607 0.003885
vt 0.884648 0.005928
vt 0.865911 0.007025
vt 0.840580 0.005551
vt 0.806658 0.006139
vt 0.778653 0.008481
vt 0.750378 0.010340
vt 0.721923 0.011968
vt 0.693435 0.013507
vt 0.665153 0.015073
vt 0.643497 0.013948
vt 0.614079 0.010515
vt 0.576133 0.010048
vt 0.546377 0.012071
vt 0.517202 0.013818
vt 0.495071 0.012691
vt 0.458463 0.012139
vt 0.436372 0.011273
vt 0.399490 0.010655
vt 0.377338 0.009988
vt 0.347485 0.006402
vt 0.309364 0.005694
vt 0.280244 0.007596
vt 0.252316 0.008908
vt 0.262176 0.606619
vt 0.292441 0.606202
vt 0.287002 0.987365
vt 0.322615 0.605856
vt 0.315562 0.985816
vt 0.352693 0.605582
vt 0.344014 0.984314
vt 0.382670 0.605389
vt 0.372178 0.982870
vt 0.412780 0.605552
vt 0.393937 0.984297
vt 0.443205 0.605738
vt 0.423679 0.987980
vt 0.473679 0.605570
vt 0.462330 0.988520
vt 0.503998 0.605406
vt 0.492667 0.986593
vt 0.534203 0.605266
vt 0.522343 0.985132
vt 0.564315 0.605154
vt 0.551866 0.983928
vt 0.594338 0.605076
vt 0.581146 0.982818
vt 0.624266 0.605044
vt 0.610045 0.981707
vt 0.654353 0.605353
vt 0.632111 0.983644
vt 0.684509 0.605372
vt 0.669000 0.984635
vt 0.714547 0.605437
vt 0.698004 0.983410
vt 0.744490 0.605570
vt 0.726447 0.982528
vt 0.774347 0.605790
vt 0.754304 0.981852
vt 0.804118 0.606124
vt 0.781459 0.981330
vt 0.833797 0.606608
vt 0.807716 0.980938
vt 0.863371 0.607288
vt 0.832767 0.980648
vt 0.892971 0.608421
vt 0.851840 0.982268
vt 0.922570 0.609673
vt 0.878664 0.984036
vt 0.952097 0.611496
vt 0.894983 0.985506
vt 0.981446 0.613831
vt 0.912495 0.986655
vt 0.017436 0.615264
vt 0.048003 0.613152
vt 0.081809 1.002175
vt 0.078794 0.611525
vt 0.101209 1.001859
vt 0.109530 0.610247
vt 0.123879 0.999103
vt 0.140214 0.609233
vt 0.148432 0.996854
vt 0.170837 0.608403
vt 0.174829 0.994821
vt 0.201375 0.607703
vt 0.202358 0.992767
vt 0.231822 0.607115
vt 0.230278 0.990825
vt 0.258533 0.989020
vt 0.260750 0.561618
vt 0.291283 0.561366
vt 0.260369 0.536065
vt 0.290988 0.535913
vt 0.290648 0.512305
vt 0.259532 0.497815
vt 0.290319 0.497821
vt 0.260025 0.483283
vt 0.290697 0.483348
vt 0.291055 0.459827
vt 0.321721 0.561169
vt 0.321505 0.535797
vt 0.321234 0.512261
vt 0.320971 0.497827
vt 0.321318 0.483397
vt 0.321591 0.459951
vt 0.352094 0.561018
vt 0.351920 0.535713
vt 0.351726 0.512227
vt 0.351546 0.497831
vt 0.351848 0.483437
vt 0.352098 0.460038
vt 0.382441 0.560976
vt 0.382287 0.535657
vt 0.382153 0.512203
vt 0.382044 0.497836
vt 0.382312 0.483470
vt 0.382534 0.460116
vt 0.412774 0.560888
vt 0.412650 0.535601
vt 0.412545 0.512182
vt 0.412482 0.497841
vt 0.412715 0.483501
vt 0.412905 0.460202
vt 0.443071 0.560754
vt 0.442996 0.535552
vt 0.442914 0.512166
vt 0.442872 0.497845
vt 0.443056 0.483525
vt 0.443205 0.460257
vt 0.473373 0.560776
vt 0.473320 0.535532
vt 0.473259 0.512157
vt 0.473224 0.497849
vt 0.473360 0.483545
vt 0.473462 0.460313
vt 0.503677 0.560712
vt 0.503618 0.535512
vt 0.503570 0.512151
vt 0.503549 0.497854
vt 0.503644 0.483558
vt 0.503710 0.460333
vt 0.533945 0.560694
vt 0.533869 0.535500
vt 0.533849 0.512148
vt 0.533853 0.497858
vt 0.533913 0.483568
vt 0.533961 0.460359
vt 0.564162 0.560681
vt 0.564107 0.535496
vt 0.564113 0.512149
vt 0.564148 0.497861
vt 0.564176 0.483575
vt 0.564195 0.460378
vt 0.594345 0.560694
vt 0.594330 0.535505
vt 0.594369 0.512153
vt 0.594444 0.497865
vt 0.594444 0.483576
vt 0.594417 0.460386
vt 0.624531 0.560755
vt 0.624562 0.535525
vt 0.624631 0.512162
vt 0.624755 0.497869
vt 0.624725 0.483568
vt 0.624660 0.460356
vt 0.654692 0.560694
vt 0.654782 0.535542
vt 0.654905 0.512178
vt 0.655097 0.497874
vt 0.655024 0.483555
vt 0.654920 0.460313
vt 0.684869 0.560817
vt 0.685000 0.535603
vt 0.685198 0.512204
vt 0.685473 0.497880
vt 0.685357 0.483537
vt 0.685204 0.460271
vt 0.715065 0.560948
vt 0.715251 0.535690
vt 0.715530 0.512242
vt 0.715913 0.497889
vt 0.715751 0.483513
vt 0.715534 0.460204
vt 0.745263 0.561119
vt 0.745535 0.535808
vt 0.745917 0.512296
vt 0.746441 0.497901
vt 0.746233 0.483479
vt 0.745945 0.460108
vt 0.775472 0.561354
vt 0.775865 0.535969
vt 0.776381 0.512368
vt 0.777089 0.497917
vt 0.776830 0.483435
vt 0.776465 0.459983
vt 0.805715 0.561679
vt 0.806269 0.536188
vt 0.806948 0.512465
vt 0.807896 0.497938
vt 0.807573 0.483378
vt 0.807121 0.459827
vt 0.836028 0.562128
vt 0.836795 0.536479
vt 0.837699 0.512587
vt 0.838867 0.497967
vt 0.838529 0.483307
vt 0.837908 0.459624
vt 0.866467 0.562749
vt 0.867508 0.536861
vt 0.868685 0.512746
vt 0.870133 0.498005
vt 0.869714 0.483212
vt 0.868923 0.459346
vt 0.897103 0.563414
vt 0.898454 0.537341
vt 0.899926 0.512953
vt 0.901700 0.498051
vt 0.901160 0.483092
vt 0.900221 0.458999
vt 0.928013 0.564475
vt 0.929724 0.537973
vt 0.931542 0.513202
vt 0.933648 0.498100
vt 0.933054 0.482947
vt 0.931887 0.458577
vt 0.959355 0.565757
vt 0.961513 0.538748
vt 0.963672 0.513497
vt 0.966039 0.498159
vt 0.965433 0.482775
vt 0.964090 0.458031
vt 0.991585 0.567481
vt 0.994149 0.539683
vt 0.996478 0.513825
vt 0.998914 0.498228
vt 0.998382 0.482596
vt 0.997013 0.457398
vt 0.008049 0.567490
vt 0.041365 0.565977
vt 0.005965 0.539395
vt 0.039557 0.538655
vt 0.004370 0.513486
vt 0.037983 0.513277
vt 0.003659 0.497578
vt 0.037096 0.497639
vt 0.006021 0.481723
vt 0.039437 0.482059
vt 0.008513 0.455665
vt 0.041604 0.456623
vt 0.073783 0.564906
vt 0.072271 0.538024
vt 0.070887 0.513072
vt 0.070000 0.497687
vt 0.072056 0.482357
vt 0.073896 0.457421
vt 0.105603 0.563993
vt 0.104439 0.537515
vt 0.103258 0.512893
vt 0.102423 0.497726
vt 0.104143 0.482610
vt 0.105640 0.458061
vt 0.137108 0.563327
vt 0.136123 0.537101
vt 0.135168 0.512743
vt 0.134426 0.497755
vt 0.135821 0.482815
vt 0.137009 0.458568
vt 0.168319 0.562794
vt 0.167525 0.536760
vt 0.166737 0.512619
vt 0.166078 0.497777
vt 0.167188 0.482978
vt 0.168119 0.458964
vt 0.199291 0.562314
vt 0.198690 0.536484
vt 0.198032 0.512516
vt 0.197439 0.497793
vt 0.198304 0.483103
vt 0.199020 0.459257
vt 0.230096 0.561930
vt 0.229620 0.536255
vt 0.229057 0.512429
vt 0.228566 0.497807
vt 0.229248 0.483203
vt 0.229811 0.459492
vt 0.259921 0.512359
vt 0.260470 0.459679
s 1
f 74/1/1 2/2/2 73/3/3
f 81/4/4 4/5/5 74/1/1
f 88/6/6 6/7/7 81/4/4
f 95/8/8 8/9/9 88/6/6
f 102/10/10 10/11/11 95/8/8
f 102/10/10 14/12/12 12/13/13
f 116/14/14 14/12/12 109/15/15
f 123/16/16 16/17/17 116/14/14
f 130/18/18 18/19/19 123/20/16
f 137/21/20 20/22/21 130/18/18
f 144/23/22 22/24/23 137/21/20
f 151/25/24 24/26/25 144/23/22
f 151/25/24 28/27/26 26/28/27
f 165/29/28 28/27/26 158/30/29
f 165/29/28 32/31/30 30/32/31
f 172/33/32 34/34/33 32/31/30
f 186/35/34 34/34/33 179/36/35
f 193/37/36 36/38/37 186/35/34
f 200/39/38 38/40/39 193/37/36
f 207/41/40 40/42/41 200/39/38
f 207/41/40 44/43/42 42/44/43
f 214/45/44 46/46/45 44/43/42
f 228/47/46 46/46/45 221/48/47
f 235/49/48 48/50/49 228/47/46
f 235/49/48 52/51/50 50/52/51
f 249/53/52 52/51/50 242/54/53
f 256/55/54 54/56/55 249/53/52
f 263/57/56 56/58/57 256/55/54
f 270/59/58 58/60/59 263/57/56
f 277/61/60 60/62/61 270/59/58
f 277/61/60 64/63/62 62/64/63
f 73/3/3 64/63/62 284/65/64
f 4/5/5 6/7/7 65/66/65
f 6/7/7 8/9/9 65/67/65
f 8/9/9 10/11/11 65/68/65
f 10/11/11 12/13/13 65/69/65
f 12/13/13 14/12/12 65/70/65
f 14/12/12 16/17/17 65/71/65
f 16/17/17 18/72/19 65/73/65
f 18/19/19 20/22/21 65/74/65
f 20/22/21 22/24/23 65/75/65
f 22/24/23 24/26/25 65/76/65
f 24/26/25 26/28/27 65/77/65
f 26/28/27 28/27/26 65/78/65
f 28/27/26 30/32/31 65/79/65
f 30/32/31 32/31/30 65/80/65
f 32/31/30 34/34/33 65/81/65
f 34/34/33 36/38/37 65/82/65
f 36/38/37 38/40/39 65/83/65
f 38/40/39 40/42/41 65/84/65
f 40/42/41 42/44/43 65/85/65
f 42/44/43 44/43/42 65/86/65
f 44/43/42 46/46/45 65/87/65
f 46/46/45 48/50/49 65/88/65
f 48/50/49 50/52/51 65/89/65
f 50/52/51 52/51/50 65/90/65
f 52/51/50 54/56/55 65/91/65
f 54/56/55 56/58/57 65/92/65
f 56/58/57 58/60/59 65/93/65
f 58/60/59 60/62/61 65/94/65
f 60/62/61 62/64/63 65/95/65
f 62/64/63 64/63/62 65/96/65
f 64/63/62 2/2/2 65/97/65
f 2/2/2 4/5/5 65/98/65
f 1/99/66 63/100/67 66/101/68
f 63/100/67 61/102/69 66/103/68
f 61/102/69 59/104/70 66/105/68
f 59/104/70 57/106/71 66/107/68
f 57/106/71 55/108/72 66/109/68
f 55/108/72 53/110/73 66/111/68
f 53/110/73 51/112/74 66/113/68
f 51/112/74 49/114/75 66/115/68
f 49/114/75 47/116/76 66/117/68
f 47/116/76 45/118/77 66/119/68
f 45/118/77 43/120/78 66/121/68
f 43/120/78 41/122/79 66/123/68
f 41/122/79 39/124/80 66/125/68
f 39/124/80 37/126/81 66/127/68
f 37/126/81 35/128/82 66/129/68
f 35/128/82 33/130/83 66/131/68
f 33/130/83 31/132/84 66/133/68
f 31/132/84 29/134/85 66/135/68
f 29/134/85 27/136/86 66/137/68
f 27/136/86 25/138/87 66/139/68
f 25/138/87 23/140/88 66/141/68
f 23/140/88 21/142/89 66/143/68
f 21/142/89 19/144/90 66/145/68
f 19/144/90 17/146/91 66/147/68
f 17/148/91 15/149/92 66/150/68
f 15/149/92 13/151/93 66/152/68
f 13/151/93 11/153/94 66/154/68
f 11/153/94 9/155/95 66/156/68
f 9/155/95 7/157/96 66/158/68
f 7/157/96 5/159/97 66/160/68
f 5/159/97 3/161/98 66/162/68
f 3/161/98 1/99/66 66/163/68
f 63/100/67 67/164/99 290/165/100
f 290/165/100 68/166/101 289/167/102
f 68/166/101 288/168/102 289/167/102
f 288/168/102 70/169/101 287/170/102
f 287/170/102 71/171/101 286/172/102
f 71/171/101 285/173/102 286/172/102
f 285/173/102 73/3/3 284/65/64
f 63/100/67 283/174/103 61/102/69
f 290/165/100 282/175/104 283/174/103
f 289/167/102 281/176/104 282/175/104
f 288/168/102 280/177/104 281/176/104
f 287/170/102 279/178/104 280/177/104
f 286/172/102 278/179/104 279/178/104
f 285/173/102 277/61/60 278/179/104
f 59/104/70 283/174/103 276/180/105
f 283/174/103 275/181/106 276/180/105
f 275/181/106 281/176/104 274/182/106
f 281/176/104 273/183/106 274/182/106
f 280/177/104 272/184/106 273/183/106
f 272/184/106 278/179/104 271/185/106
f 278/179/104 270/59/58 271/185/106
f 59/104/70 269/186/107 57/106/71
f 276/180/105 268/187/108 269/186/107
f 275/181/106 267/188/108 268/187/108
f 274/182/106 266/189/108 267/188/108
f 273/183/106 265/190/108 266/189/108
f 272/184/106 264/191/108 265/190/108
f 264/191/108 270/59/58 263/57/56
f 55/108/72 269/186/107 262/192/109
f 262/192/109 268/187/108 261/193/110
f 268/187/108 260/194/110 261/193/110
f 267/188/108 259/195/110 260/194/110
f 266/189/108 258/196/110 259/195/110
f 265/190/108 257/197/110 258/196/110
f 264/191/108 256/55/54 257/197/110
f 55/108/72 255/198/111 53/110/73
f 255/198/111 261/193/110 254/199/112
f 254/199/112 260/194/110 253/200/112
f 260/194/110 252/201/112 253/200/112
f 259/195/110 251/202/112 252/201/112
f 258/196/110 250/203/112 251/202/112
f 257/197/110 249/53/52 250/203/112
f 53/110/73 248/204/113 51/112/74
f 255/198/111 247/205/114 248/204/113
f 247/205/114 253/200/112 246/206/114
f 253/200/112 245/207/114 246/206/114
f 252/201/112 244/208/114 245/207/114
f 251/202/112 243/209/114 244/208/114
f 250/203/112 242/54/53 243/209/114
f 51/112/74 241/210/115 49/114/75
f 248/204/113 240/211/116 241/210/115
f 240/211/116 246/206/114 239/212/116
f 239/212/116 245/207/114 238/213/116
f 238/213/116 244/208/114 237/214/116
f 237/214/116 243/209/114 236/215/116
f 236/215/116 242/54/53 235/49/48
f 49/114/75 234/216/117 47/116/76
f 234/216/117 240/211/116 233/217/118
f 240/211/116 232/218/118 233/217/118
f 239/212/116 231/219/118 232/218/118
f 238/213/116 230/220/118 231/219/118
f 237/214/116 229/221/118 230/220/118
f 236/215/116 228/47/46 229/221/118
f 45/118/77 234/216/117 227/222/119
f 227/222/119 233/217/118 226/223/120
f 233/217/118 225/224/120 226/223/120
f 232/218/118 224/225/120 225/224/120
f 231/219/118 223/226/120 224/225/120
f 230/220/118 222/227/120 223/226/120
f 229/221/118 221/48/47 222/227/120
f 45/118/77 220/228/121 43/120/78
f 227/222/119 219/229/122 220/228/121
f 226/223/120 218/230/122 219/229/122
f 225/224/120 217/231/122 218/230/122
f 224/225/120 216/232/122 217/231/122
f 223/226/120 215/233/122 216/232/122
f 222/227/120 214/45/44 215/233/122
f 43/120/78 213/234/123 41/122/79
f 220/228/121 212/235/124 213/234/123
f 212/235/124 218/230/122 211/236/124
f 211/236/124 217/231/122 210/237/124
f 210/237/124 216/232/122 209/238/124
f 209/238/124 215/233/122 208/239/124
f 208/239/124 214/45/44 207/41/40
f 39/124/80 213/234/123 206/240/125
f 206/240/125 212/235/124 205/241/126
f 205/241/126 211/236/124 204/242/126
f 204/242/126 210/237/124 203/243/126
f 210/237/124 202/244/126 203/243/126
f 209/238/124 201/245/126 202/244/126
f 208/239/124 200/39/38 201/245/126
f 39/124/80 199/246/127 37/126/81
f 206/240/125 198/247/128 199/246/127
f 205/241/126 197/248/128 198/247/128
f 204/242/126 196/249/128 197/248/128
f 203/243/126 195/250/128 196/249/128
f 202/244/126 194/251/128 195/250/128
f 201/245/126 193/37/36 194/251/128
f 35/128/82 199/246/127 192/252/129
f 199/246/127 191/253/130 192/252/129
f 198/247/128 190/254/130 191/253/130
f 197/248/128 189/255/130 190/254/130
f 196/249/128 188/256/130 189/255/130
f 195/250/128 187/257/130 188/256/130
f 194/251/128 186/35/34 187/257/130
f 35/128/82 185/258/131 33/130/83
f 192/252/129 184/259/132 185/258/131
f 191/253/130 183/260/132 184/259/132
f 190/254/130 182/261/132 183/260/132
f 189/255/130 181/262/132 182/261/132
f 188/256/130 180/263/132 181/262/132
f 187/257/130 179/36/35 180/263/132
f 31/132/84 185/258/131 178/264/133
f 185/258/131 177/265/134 178/264/133
f 184/259/132 176/266/134 177/265/134
f 176/266/134 182/261/132 175/267/134
f 182/261/132 174/268/134 175/267/134
f 181/262/132 173/269/134 174/268/134
f 180/263/132 172/33/32 173/269/134
f 31/132/84 171/270/135 29/134/85
f 178/264/133 170/271/136 171/270/135
f 177/265/134 169/272/136 170/271/136
f 176/266/134 168/273/136 169/272/136
f 175/267/134 167/274/136 168/273/136
f 167/274/136 173/269/134 166/275/136
f 173/269/134 165/29/28 166/275/136
f 29/134/85 164/276/137 27/136/86
f 171/270/135 163/277/138 164/276/137
f 170/271/136 162/278/138 163/277/138
f 169/272/136 161/279/138 162/278/138
f 168/273/136 160/280/138 161/279/138
f 167/274/136 159/281/138 160/280/138
f 166/275/136 158/30/29 159/281/138
f 27/136/86 157/282/139 25/138/87
f 164/276/137 156/283/140 157/282/139
f 156/283/140 162/278/138 155/284/140
f 162/278/138 154/285/140 155/284/140
f 154/285/140 160/280/138 153/286/140
f 153/286/140 159/281/138 152/287/140
f 152/287/140 158/30/29 151/25/24
f 23/140/88 157/282/139 150/288/141
f 150/288/141 156/283/140 149/289/142
f 149/289/142 155/284/140 148/290/142
f 148/290/142 154/285/140 147/291/142
f 147/291/142 153/286/140 146/292/142
f 146/292/142 152/287/140 145/293/142
f 152/287/140 144/23/22 145/293/142
f 21/142/89 150/288/141 143/294/143
f 150/288/141 142/295/144 143/294/143
f 149/289/142 141/296/144 142/295/144
f 148/290/142 140/297/144 141/296/144
f 147/291/142 139/298/144 140/297/144
f 146/292/142 138/299/144 139/298/144
f 145/293/142 137/21/20 138/299/144
f 21/142/89 136/300/145 19/144/90
f 136/300/145 142/295/144 135/301/146
f 142/295/144 134/302/146 135/301/146
f 141/296/144 133/303/146 134/302/146
f 140/297/144 132/304/146 133/303/146
f 139/298/144 131/305/146 132/304/146
f 138/299/144 130/18/18 131/305/146
f 19/144/90 129/306/147 17/146/91
f 136/300/145 128/307/148 129/306/147
f 135/301/146 127/308/148 128/307/148
f 134/302/146 126/309/148 127/308/148
f 133/303/146 125/310/148 126/309/148
f 132/304/146 124/311/148 125/310/148
f 131/305/146 123/20/16 124/311/148
f 15/149/92 129/312/147 122/313/149
f 122/313/149 128/314/148 121/315/150
f 121/315/150 127/316/148 120/317/150
f 120/317/150 126/318/148 119/319/150
f 119/319/150 125/320/148 118/321/150
f 118/321/150 124/322/148 117/323/150
f 124/322/148 116/14/14 117/323/150
f 15/149/92 115/324/151 13/151/93
f 122/313/149 114/325/152 115/324/151
f 114/325/152 120/317/150 113/326/152
f 120/317/150 112/327/152 113/326/152
f 119/319/150 111/328/152 112/327/152
f 118/321/150 110/329/152 111/328/152
f 117/323/150 109/15/15 110/329/152
f 13/151/93 108/330/153 11/153/94
f 108/330/153 114/325/152 107/331/154
f 114/325/152 106/332/154 107/331/154
f 113/326/152 105/333/154 106/332/154
f 112/327/152 104/334/154 105/333/154
f 111/328/152 103/335/154 104/334/154
f 110/329/152 102/10/10 103/335/154
f 11/153/94 101/336/155 9/155/95
f 108/330/153 100/337/156 101/336/155
f 107/331/154 99/338/156 100/337/156
f 106/332/154 98/339/156 99/338/156
f 105/333/154 97/340/156 98/339/156
f 104/334/154 96/341/156 97/340/156
f 103/335/154 95/8/8 96/341/156
f 9/155/95 94/342/157 7/157/96
f 101/336/155 93/343/158 94/342/157
f 100/337/156 92/344/158 93/343/158
f 99/338/156 91/345/158 92/344/158
f 98/339/156 90/346/158 91/345/158
f 97/340/156 89/347/158 90/346/158
f 96/341/156 88/6/6 89/347/158
f 5/159/97 94/342/157 87/348/159
f 94/342/157 86/349/160 87/348/159
f 93/343/158 85/350/160 86/349/160
f 92/344/158 84/351/160 85/350/160
f 91/345/158 83/352/160 84/351/160
f 90/346/158 82/353/160 83/352/160
f 82/353/160 88/6/6 81/4/4
f 3/161/98 87/348/159 80/354/161
f 87/348/159 79/355/162 80/354/161
f 86/349/160 78/356/162 79/355/162
f 85/350/160 77/357/162 78/356/162
f 77/357/162 83/352/160 76/358/162
f 76/358/162 82/353/160 75/359/162
f 75/359/162 81/4/4 74/1/1
f 3/161/98 67/164/99 1/99/66
f 67/164/99 79/355/162 68/166/101
f 79/355/162 69/360/101 68/166/101
f 69/360/101 77/357/162 70/169/101
f 77/357/162 71/171/101 70/169/101
f 76/358/162 72/361/101 71/171/101
f 75/359/162 73/3/3 72/361/101
f 74/1/1 4/5/5 2/2/2
f 81/4/4 6/7/7 4/5/5
f 88/6/6 8/9/9 6/7/7
f 95/8/8 10/11/11 8/9/9
f 102/10/10 12/13/13 10/11/11
f 102/10/10 109/15/15 14/12/12
f 116/14/14 16/17/17 14/12/12
f 123/16/16 18/72/19 16/17/17
f 130/18/18 20/22/21 18/19/19
f 137/21/20 22/24/23 20/22/21
f 144/23/22 24/26/25 22/24/23
f 151/25/24 26/28/27 24/26/25
f 151/25/24 158/30/29 28/27/26
f 165/29/28 30/32/31 28/27/26
f 165/29/28 172/33/32 32/31/30
f 172/33/32 179/36/35 34/34/33
f 186/35/34 36/38/37 34/34/33
f 193/37/36 38/40/39 36/38/37
f 200/39/38 40/42/41 38/40/39
f 207/41/40 42/44/43 40/42/41
f 207/41/40 214/45/44 44/43/42
f 214/45/44 221/48/47 46/46/45
f 228/47/46 48/50/49 46/46/45
f 235/49/48 50/52/51 48/50/49
f 235/49/48 242/54/53 52/51/50
f 249/53/52 54/56/55 52/51/50
f 256/55/54 56/58/57 54/56/55
f 263/57/56 58/60/59 56/58/57
f 270/59/58 60/62/61 58/60/59
f 277/61/60 62/64/63 60/62/61
f 277/61/60 284/65/64 64/63/62
f 73/3/3 2/2/2 64/63/62
f 63/100/67 1/99/66 67/164/99
f 290/165/100 67/164/99 68/166/101
f 68/166/101 69/360/101 288/168/102
f 288/168/102 69/360/101 70/169/101
f 287/170/102 70/169/101 71/171/101
f 71/171/101 72/361/101 285/173/102
f 285/173/102 72/361/101 73/3/3
f 63/100/67 290/165/100 283/174/103
f 290/165/100 289/167/102 282/175/104
f 289/167/102 288/168/102 281/176/104
f 288/168/102 287/170/102 280/177/104
f 287/170/102 286/172/102 279/178/104
f 286/172/102 285/173/102 278/179/104
f 285/173/102 284/65/64 277/61/60
f 59/104/70 61/102/69 283/174/103
f 283/174/103 282/175/104 275/181/106
f 275/181/106 282/175/104 281/176/104
f 281/176/104 280/177/104 273/183/106
f 280/177/104 279/178/104 272/184/106
f 272/184/106 279/178/104 278/179/104
f 278/179/104 277/61/60 270/59/58
f 59/104/70 276/180/105 269/186/107
f 276/180/105 275/181/106 268/187/108
f 275/181/106 274/182/106 267/188/108
f 274/182/106 273/183/106 266/189/108
f 273/183/106 272/184/106 265/190/108
f 272/184/106 271/185/106 264/191/108
f 264/191/108 271/185/106 270/59/58
f 55/108/72 57/106/71 269/186/107
f 262/192/109 269/186/107 268/187/108
f 268/187/108 267/188/108 260/194/110
f 267/188/108 266/189/108 259/195/110
f 266/189/108 265/190/108 258/196/110
f 265/190/108 264/191/108 257/197/110
f 264/191/108 263/57/56 256/55/54
f 55/108/72 262/192/109 255/198/111
f 255/198/111 262/192/109 261/193/110
f 254/199/112 261/193/110 260/194/110
f 260/194/110 259/195/110 252/201/112
f 259/195/110 258/196/110 251/202/112
f 258/196/110 257/197/110 250/203/112
f 257/197/110 256/55/54 249/53/52
f 53/110/73 255/198/111 248/204/113
f 255/198/111 254/199/112 247/205/114
f 247/205/114 254/199/112 253/200/112
f 253/200/112 252/201/112 245/207/114
f 252/201/112 251/202/112 244/208/114
f 251/202/112 250/203/112 243/209/114
f 250/203/112 249/53/52 242/54/53
f 51/112/74 248/204/113 241/210/115
f 248/204/113 247/205/114 240/211/116
f 240/211/116 247/205/114 246/206/114
f 239/212/116 246/206/114 245/207/114
f 238/213/116 245/207/114 244/208/114
f 237/214/116 244/208/114 243/209/114
f 236/215/116 243/209/114 242/54/53
f 49/114/75 241/210/115 234/216/117
f 234/216/117 241/210/115 240/211/116
f 240/211/116 239/212/116 232/218/118
f 239/212/116 238/213/116 231/219/118
f 238/213/116 237/214/116 230/220/118
f 237/214/116 236/215/116 229/221/118
f 236/215/116 235/49/48 228/47/46
f 45/118/77 47/116/76 234/216/117
f 227/222/119 234/216/117 233/217/118
f 233/217/118 232/218/118 225/224/120
f 232/218/118 231/219/118 224/225/120
f 231/219/118 230/220/118 223/226/120
f 230/220/118 229/221/118 222/227/120
f 229/221/118 228/47/46 221/48/47
f 45/118/77 227/222/119 220/228/121
f 227/222/119 226/223/120 219/229/122
f 226/223/120 225/224/120 218/230/122
f 225/224/120 224/225/120 217/231/122
f 224/225/120 223/226/120 216/232/122
f 223/226/120 222/227/120 215/233/122
f 222/227/120 221/48/47 214/45/44
f 43/120/78 220/228/121 213/234/123
f 220/228/121 219/229/122 212/235/124
f 212/235/124 219/229/122 218/230/122
f 211/236/124 218/230/122 217/231/122
f 210/237/124 217/231/122 216/232/122
f 209/238/124 216/232/122 215/233/122
f 208/239/124 215/233/122 214/45/44
f 39/124/80 41/122/79 213/234/123
f 206/240/125 213/234/123 212/235/124
f 205/241/126 212/235/124 211/236/124
f 204/242/126 211/236/124 210/237/124
f 210/237/124 209/238/124 202/244/126
f 209/238/124 208/239/124 201/245/126
f 208/239/124 207/41/40 200/39/38
f 39/124/80 206/240/125 199/246/127
f 206/240/125 205/241/126 198/247/128
f 205/241/126 204/242/126 197/248/128
f 204/242/126 203/243/126 196/249/128
f 203/243/126 202/244/126 195/250/128
f 202/244/126 201/245/126 194/251/128
f 201/245/126 200/39/38 193/37/36
f 35/128/82 37/126/81 199/246/127
f 199/246/127 198/247/128 191/253/130
f 198/247/128 197/248/128 190/254/130
f 197/248/128 196/249/128 189/255/130
f 196/249/128 195/250/128 188/256/130
f 195/250/128 194/251/128 187/257/130
f 194/251/128 193/37/36 186/35/34
f 35/128/82 192/252/129 185/258/131
f 192/252/129 191/253/130 184/259/132
f 191/253/130 190/254/130 183/260/132
f 190/254/130 189/255/130 182/261/132
f 189/255/130 188/256/130 181/262/132
f 188/256/130 187/257/130 180/263/132
f 187/257/130 186/35/34 179/36/35
f 31/132/84 33/130/83 185/258/131
f 185/258/131 184/259/132 177/265/134
f 184/259/132 183/260/132 176/266/134
f 176/266/134 183/260/132 182/261/132
f 182/261/132 181/262/132 174/268/134
f 181/262/132 180/263/132 173/269/134
f 180/263/132 179/36/35 172/33/32
f 31/132/84 178/264/133 171/270/135
f 178/264/133 177/265/134 170/271/136
f 177/265/134 176/266/134 169/272/136
f 176/266/134 175/267/134 168/273/136
f 175/267/134 174/268/134 167/274/136
f 167/274/136 174/268/134 173/269/134
f 173/269/134 172/33/32 165/29/28
f 29/134/85 171/270/135 164/276/137
f 171/270/135 170/271/136 163/277/138
f 170/271/136 169/272/136 162/278/138
f 169/272/136 168/273/136 161/279/138
f 168/273/136 167/274/136 160/280/138
f 167/274/136 166/275/136 159/281/138
f 166/275/136 165/29/28 158/30/29
f 27/136/86 164/276/137 157/282/139
f 164/276/137 163/277/138 156/283/140
f 156/283/140 163/277/138 162/278/138
f 162/278/138 161/279/138 154/285/140
f 154/285/140 161/279/138 160/280/138
f 153/286/140 160/280/138 159/281/138
f 152/287/140 159/281/138 158/30/29
f 23/140/88 25/138/87 157/282/139
f 150/288/141 157/282/139 156/283/140
f 149/289/142 156/283/140 155/284/140
f 148/290/142 155/284/140 154/285/140
f 147/291/142 154/285/140 153/286/140
f 146/292/142 153/286/140 152/287/140
f 152/287/140 151/25/24 144/23/22
f 21/142/89 23/140/88 150/288/141
f 150/288/141 149/289/142 142/295/144
f 149/289/142 148/290/142 141/296/144
f 148/290/142 147/291/142 140/297/144
f 147/291/142 146/292/142 139/298/144
f 146/292/142 145/293/142 138/299/144
f 145/293/142 144/23/22 137/21/20
f 21/142/89 143/294/143 136/300/145
f 136/300/145 143/294/143 142/295/144
f 142/295/144 141/296/144 134/302/146
f 141/296/144 140/297/144 133/303/146
f 140/297/144 139/298/144 132/304/146
f 139/298/144 138/299/144 131/305/146
f 138/299/144 137/21/20 130/18/18
f 19/144/90 136/300/145 129/306/147
f 136/300/145 135/301/146 128/307/148
f 135/301/146 134/302/146 127/308/148
f 134/302/146 133/303/146 126/309/148
f 133/303/146 132/304/146 125/310/148
f 132/304/146 131/305/146 124/311/148
f 131/305/146 130/18/18 123/20/16
f 15/149/92 17/148/91 129/312/147
f 122/313/149 129/312/147 128/314/148
f 121/315/150 128/314/148 127/316/148
f 120/317/150 127/316/148 126/318/148
f 119/319/150 126/318/148 125/320/148
f 118/321/150 125/320/148 124/322/148
f 124/322/148 123/16/16 116/14/14
f 15/149/92 122/313/149 115/324/151
f 122/313/149 121/315/150 114/325/152
f 114/325/152 121/315/150 120/317/150
f 120/317/150 119/319/150 112/327/152
f 119/319/150 118/321/150 111/328/152
f 118/321/150 117/323/150 110/329/152
f 117/323/150 116/14/14 109/15/15
f 13/151/93 115/324/151 108/330/153
f 108/330/153 115/324/151 114/325/152
f 114/325/152 113/326/152 106/332/154
f 113/326/152 112/327/152 105/333/154
f 112/327/152 111/328/152 104/334/154
f 111/328/152 110/329/152 103/335/154
f 110/329/152 109/15/15 102/10/10
f 11/153/94 108/330/153 101/336/155
f 108/330/153 107/331/154 100/337/156
f 107/331/154 106/332/154 99/338/156
f 106/332/154 105/333/154 98/339/156
f 105/333/154 104/334/154 97/340/156
f 104/334/154 103/335/154 96/341/156
f 103/335/154 102/10/10 95/8/8
f 9/155/95 101/336/155 94/342/157
f 101/336/155 100/337/156 93/343/158
f 100/337/156 99/338/156 92/344/158
f 99/338/156 98/339/156 91/345/158
f 98/339/156 97/340/156 90/346/158
f 97/340/156 96/341/156 89/347/158
f 96/341/156 95/8/8 88/6/6
f 5/159/97 7/157/96 94/342/157
f 94/342/157 93/343/158 86/349/160
f 93/343/158 92/344/158 85/350/160
f 92/344/158 91/345/158 84/351/160
f 91/345/158 90/346/158 83/352/160
f 90/346/158 89/347/158 82/353/160
f 82/353/160 89/347/158 88/6/6
f 3/161/98 5/159/97 87/348/159
f 87/348/159 86/349/160 79/355/162
f 86/349/160 85/350/160 78/356/162
f 85/350/160 84/351/160 77/357/162
f 77/357/162 84/351/160 83/352/160
f 76/358/162 83/352/160 82/353/160
f 75/359/162 82/353/160 81/4/4
f 3/161/98 80/354/161 67/164/99
f 67/164/99 80/354/161 79/355/162
f 79/355/162 78/356/162 69/360/101
f 69/360/101 78/356/162 77/357/162
f 77/357/162 76/358/162 71/171/101
f 76/358/162 75/359/162 72/361/101
f 75/359/162 74/1/1 73/3/3
